<?xml version="1.0" encoding="UTF-8"?><svg xmlns="http://www.w3.org/2000/svg" viewBox="0 0 176.08 176.08"><defs><style>.d{fill:none;}.e{fill:#ef476f;}.f{fill:#806991;}.g{fill:#118ab2;}.h{fill:#06d6a0;}.i{fill:#0cb0a9;}.j{fill:#578d96;}.k{fill:#7b8f88;}</style></defs><g id="a"/><g id="b"><g id="c"><g><circle class="f" cx="88.04" cy="8.04" r="8.04"/><circle class="j" cx="88.04" cy="88.04" r="8.04"/><circle class="g" cx="88.04" cy="108.04" r="8.04"/><circle class="g" cx="88.04" cy="148.04" r="8.04"/><circle class="g" cx="88.04" cy="128.04" r="8.04"/><circle class="f" cx="88.04" cy="168.04" r="8.04"/><circle class="k" cx="157.32" cy="48.04" r="8.04"/><circle class="e" cx="140" cy="58.04" r="8.04"/><circle class="e" cx="105.36" cy="78.04" r="8.04"/><circle class="e" cx="122.68" cy="68.04" r="8.04"/><circle class="k" cx="18.76" cy="128.04" r="8.04"/><circle class="i" cx="18.76" cy="48.04" r="8.04"/><circle class="i" cx="157.32" cy="128.04" r="8.04"/><circle class="g" cx="70.68" cy="18.04" r="8.04"/><circle class="g" cx="36.04" cy="38.04" r="8.04"/><circle class="g" cx="53.36" cy="28.04" r="8.04"/><circle class="g" cx="140" cy="138.04" r="8.04"/><circle class="g" cx="105.36" cy="158.04" r="8.04"/><circle class="g" cx="122.68" cy="148.04" r="8.04"/><circle class="h" cx="18.76" cy="68.04" r="8.04"/><circle class="h" cx="18.76" cy="108.04" r="8.04"/><circle class="h" cx="18.76" cy="88.04" r="8.04"/><circle class="h" cx="157.32" cy="68.04" r="8.04"/><circle class="h" cx="157.32" cy="108.04" r="8.04"/><circle class="h" cx="157.32" cy="88.04" r="8.04"/><circle class="d" cx="88.04" cy="88.04" r="88.04"/></g></g></g></svg>