<?xml version="1.0" encoding="UTF-8"?><svg xmlns="http://www.w3.org/2000/svg" viewBox="0 0 176.08 176.23"><defs><style>.e{fill:none;}.f{fill:#ef476f;}.g{fill:#806991;}.h{fill:#118ab2;}.i{fill:#06d6a0;}.j{fill:#0cb0a9;}.k{fill:#578d96;}.l{fill:#7b8f88;}</style></defs><g id="a"/><g id="b"><g id="c"><g><circle class="g" cx="88.04" cy="8.04" r="8.04"/><circle class="k" cx="88.04" cy="88.04" r="8.04"/><circle class="g" cx="88.04" cy="168.04" r="8.04"/><circle class="l" cx="18.76" cy="128.04" r="8.04"/><circle class="j" cx="18.76" cy="48.04" r="8.04"/><circle class="i" cx="36.08" cy="58.04" r="8.04"/><circle class="i" cx="70.72" cy="78.04" r="8.04"/><circle class="i" cx="53.4" cy="68.04" r="8.04"/><circle class="f" cx="105.36" cy="18.04" r="8.04"/><circle class="f" cx="140" cy="38.04" r="8.04"/><circle class="f" cx="122.68" cy="28.04" r="8.04"/><circle class="f" cx="36.08" cy="138.04" r="8.04"/><circle class="f" cx="70.72" cy="158.04" r="8.04"/><circle class="f" cx="53.4" cy="148.04" r="8.04"/><circle class="h" cx="70.68" cy="18.04" r="8.04"/><circle class="h" cx="36.04" cy="38.04" r="8.04"/><circle class="h" cx="53.36" cy="28.04" r="8.04"/><circle class="i" cx="18.76" cy="68.04" r="8.04"/><circle class="i" cx="18.76" cy="108.04" r="8.04"/><circle class="i" cx="18.76" cy="88.04" r="8.04"/></g></g><g id="d"><circle class="e" cx="88.04" cy="88.19" r="88.04"/></g></g></svg>