<?xml version="1.0" encoding="UTF-8"?><svg xmlns="http://www.w3.org/2000/svg" viewBox="0 0 296.21 154.67"><defs><style>.d{fill:#ef476f;}.e{fill:#118ab2;}.f{fill:#06d6a0;}.g{fill:#0cb0a9;}.h{fill:#7b8f88;}.i{fill:none;stroke:#3a3a3a;stroke-miterlimit:10;stroke-width:.25px;}</style></defs><g id="a"/><g id="b"><g id="c"><g><circle class="g" cx="208.17" cy="8.06" r="8.04"/><circle class="f" cx="198.17" cy="25.38" r="8.04"/><circle class="f" cx="178.17" cy="60.02" r="8.04"/><circle class="f" cx="188.17" cy="42.7" r="8.04"/><circle class="f" cx="168.17" cy="77.34" r="8.04"/><circle class="f" cx="158.17" cy="94.66" r="8.04"/><circle class="f" cx="138.17" cy="129.31" r="8.04"/><circle class="f" cx="148.17" cy="111.98" r="8.04"/><circle class="h" cx="128.17" cy="146.63" r="8.04"/><circle class="e" cx="248.17" cy="77.34" r="8.04"/><circle class="i" cx="228.17" cy="77.34" r="8.04"/><circle class="i" cx="188.17" cy="77.34" r="8.04"/><circle class="i" cx="208.17" cy="77.34" r="8.04"/><circle class="i" cx="148.17" cy="77.34" r="8.04"/><circle class="i" cx="108.17" cy="77.34" r="8.04"/><circle class="i" cx="128.17" cy="77.34" r="8.04"/><circle class="d" cx="88.17" cy="77.34" r="8.04"/><circle class="h" cx="128.17" cy="8.06" r="8.04"/><circle class="i" cx="138.17" cy="25.38" r="8.04"/><circle class="i" cx="158.17" cy="60.02" r="8.04"/><circle class="i" cx="148.17" cy="42.7" r="8.04"/><circle class="i" cx="178.17" cy="94.66" r="8.04"/><circle class="i" cx="198.17" cy="129.31" r="8.04"/><circle class="i" cx="188.17" cy="111.98" r="8.04"/><circle class="g" cx="208.17" cy="146.63" r="8.04"/><circle class="i" cx="218.17" cy="25.38" r="8.04"/><circle class="i" cx="238.17" cy="60.02" r="8.04"/><circle class="i" cx="228.17" cy="42.7" r="8.04"/><circle class="i" cx="98.17" cy="94.66" r="8.04"/><circle class="i" cx="118.17" cy="129.31" r="8.04"/><circle class="i" cx="108.17" cy="111.98" r="8.04"/><circle class="f" cx="188.13" cy="8.04" r="8.04"/><circle class="f" cx="148.13" cy="8.04" r="8.04"/><circle class="f" cx="168.13" cy="8.04" r="8.04"/><circle class="f" cx="188.17" cy="146.63" r="8.04"/><circle class="f" cx="148.17" cy="146.63" r="8.04"/><circle class="f" cx="168.17" cy="146.63" r="8.04"/><circle class="d" cx="118.17" cy="25.38" r="8.04"/><circle class="d" cx="98.17" cy="60.02" r="8.04"/><circle class="d" cx="108.17" cy="42.7" r="8.04"/><circle class="e" cx="238.17" cy="94.66" r="8.04"/><circle class="e" cx="218.17" cy="129.31" r="8.04"/><circle class="e" cx="228.17" cy="111.98" r="8.04"/><circle class="e" cx="288.17" cy="8.06" r="8.04"/><circle class="e" cx="268.17" cy="8.06" r="8.04"/><circle class="e" cx="228.17" cy="8.06" r="8.04"/><circle class="e" cx="248.17" cy="8.06" r="8.04"/><circle class="e" cx="278.17" cy="25.38" r="8.04"/><circle class="e" cx="258.17" cy="60.02" r="8.04"/><circle class="e" cx="268.17" cy="42.7" r="8.04"/><circle class="e" cx="288.17" cy="146.63" r="8.04"/><circle class="e" cx="268.17" cy="146.63" r="8.04"/><circle class="e" cx="228.17" cy="146.63" r="8.04"/><circle class="e" cx="248.17" cy="146.63" r="8.04"/><circle class="i" cx="258.17" cy="94.66" r="8.04"/><circle class="i" cx="278.17" cy="129.31" r="8.04"/><circle class="i" cx="268.17" cy="111.98" r="8.04"/><circle class="d" cx="78.17" cy="94.66" r="8.04"/><circle class="d" cx="58.17" cy="129.31" r="8.04"/><circle class="d" cx="68.17" cy="111.98" r="8.04"/><circle class="d" cx="48.17" cy="146.63" r="8.04"/><circle class="i" cx="68.17" cy="77.34" r="8.04"/><circle class="i" cx="28.17" cy="77.34" r="8.04"/><circle class="i" cx="48.17" cy="77.34" r="8.04"/><circle class="i" cx="8.17" cy="77.34" r="8.04"/><circle class="d" cx="48.17" cy="8.06" r="8.04"/><circle class="i" cx="58.17" cy="25.38" r="8.04"/><circle class="i" cx="78.17" cy="60.02" r="8.04"/><circle class="i" cx="68.17" cy="42.7" r="8.04"/><circle class="i" cx="18.17" cy="94.66" r="8.04"/><circle class="i" cx="38.17" cy="129.31" r="8.04"/><circle class="i" cx="28.17" cy="111.98" r="8.04"/><circle class="d" cx="108.13" cy="8.04" r="8.04"/><circle class="d" cx="68.13" cy="8.04" r="8.04"/><circle class="d" cx="88.13" cy="8.04" r="8.04"/><circle class="d" cx="108.17" cy="146.63" r="8.04"/><circle class="d" cx="68.17" cy="146.63" r="8.04"/><circle class="d" cx="88.17" cy="146.63" r="8.04"/><circle class="i" cx="38.17" cy="25.38" r="8.04"/><circle class="i" cx="18.17" cy="60.02" r="8.04"/><circle class="i" cx="28.17" cy="42.7" r="8.04"/></g></g></g></svg>