<?xml version="1.0" encoding="UTF-8"?><svg xmlns="http://www.w3.org/2000/svg" viewBox="0 0 46.79 53.28"><g id="a"/><g id="b"><g id="c"><g><circle cx="23.4" cy="2.43" r="2.43"/><circle cx="23.4" cy="26.64" r="2.43"/><circle cx="23.4" cy="50.85" r="2.43"/><circle cx="44.36" cy="14.54" r="2.43"/><circle cx="39.12" cy="17.56" r="2.43"/><circle cx="28.64" cy="23.61" r="2.43"/><circle cx="33.88" cy="20.59" r="2.43"/><circle cx="2.43" cy="14.54" r="2.43"/><circle cx="7.67" cy="17.56" r="2.43"/><circle cx="18.16" cy="23.61" r="2.43"/><circle cx="12.92" cy="20.59" r="2.43"/><circle cx="44.36" cy="38.74" r="2.43"/><circle cx="28.64" cy="5.46" r="2.43"/><circle cx="39.12" cy="11.51" r="2.43"/><circle cx="33.88" cy="8.48" r="2.43"/><circle cx="18.16" cy="47.82" r="2.43"/><circle cx="12.92" cy="44.79" r="2.43"/><circle cx="18.14" cy="5.46" r="2.43"/><circle cx="7.66" cy="11.51" r="2.43"/><circle cx="12.9" cy="8.48" r="2.43"/><circle cx="39.12" cy="41.77" r="2.43"/><circle cx="28.64" cy="47.82" r="2.43"/><circle cx="33.88" cy="44.79" r="2.43"/><circle cx="44.36" cy="20.59" r="2.43"/><circle cx="44.36" cy="32.69" r="2.43"/><circle cx="44.36" cy="26.64" r="2.43"/></g></g></g></svg>