<?xml version="1.0" encoding="UTF-8"?><svg xmlns="http://www.w3.org/2000/svg" viewBox="0 0 36.32 53.28"><g id="a"/><g id="b"><g id="c"><g><circle cx="12.93" cy="2.43" r="2.43"/><circle cx="12.93" cy="26.64" r="2.43"/><circle cx="12.93" cy="50.85" r="2.43"/><circle cx="33.89" cy="14.54" r="2.43"/><circle cx="28.65" cy="17.56" r="2.43"/><circle cx="18.17" cy="23.61" r="2.43"/><circle cx="23.41" cy="20.59" r="2.43"/><circle cx="18.17" cy="29.67" r="2.43"/><circle cx="28.65" cy="35.72" r="2.43"/><circle cx="23.41" cy="32.69" r="2.43"/><circle cx="33.89" cy="38.74" r="2.43"/><circle cx="18.17" cy="5.46" r="2.43"/><circle cx="28.65" cy="11.51" r="2.43"/><circle cx="23.41" cy="8.48" r="2.43"/><circle cx="7.69" cy="47.82" r="2.43"/><circle cx="2.45" cy="44.79" r="2.43"/><circle cx="7.67" cy="5.46" r="2.43"/><circle cx="2.43" cy="8.48" r="2.43"/><circle cx="28.65" cy="41.77" r="2.43"/><circle cx="18.17" cy="47.82" r="2.43"/><circle cx="23.41" cy="44.79" r="2.43"/></g></g></g></svg>