<?xml version="1.0" encoding="UTF-8"?><svg xmlns="http://www.w3.org/2000/svg" viewBox="0 0 53.28 53.28"><defs><style>.d{fill:none;}</style></defs><g id="a"/><g id="b"><g id="c"><g><circle cx="26.64" cy="2.43" r="2.43"/><circle cx="26.64" cy="8.48" r="2.43"/><circle cx="26.64" cy="20.59" r="2.43"/><circle cx="26.64" cy="14.54" r="2.43"/><circle cx="26.64" cy="26.64" r="2.43"/><circle cx="26.64" cy="50.85" r="2.43"/><circle cx="47.6" cy="14.54" r="2.43"/><circle cx="5.68" cy="38.74" r="2.43"/><circle cx="31.88" cy="29.67" r="2.43"/><circle cx="42.36" cy="35.72" r="2.43"/><circle cx="37.12" cy="32.69" r="2.43"/><circle cx="47.6" cy="38.74" r="2.43"/><circle cx="31.88" cy="5.46" r="2.43"/><circle cx="42.36" cy="11.51" r="2.43"/><circle cx="37.12" cy="8.48" r="2.43"/><circle cx="10.92" cy="41.77" r="2.43"/><circle cx="21.4" cy="47.82" r="2.43"/><circle cx="16.16" cy="44.79" r="2.43"/><circle cx="42.36" cy="41.77" r="2.43"/><circle cx="31.88" cy="47.82" r="2.43"/><circle cx="37.12" cy="44.79" r="2.43"/><circle class="d" cx="26.64" cy="26.64" r="26.64"/></g></g></g></svg>